<svg xmlns="http://www.w3.org/2000/svg" viewBox="0 0 100 100" width="100" height="100" version="1.1">
    <rect x="10" y="10" width="80" height="80" fill="gray" rx="5" />
    <path d="M 20 39.25 a 60 55 0 0 1 60 0 l -5 5 a 55 52.5 0 0 0 -50 0 l -5 -5" fill="lawngreen" />
    <path d="M 30 49.25 a 40 35 0 0 1 40 0 l -5 5 a 35 32.5 0 0 0 -30 0 l -5 -5" fill="lawngreen" />
    <path d="M 40 59.25 a 20 15 0 0 1 20 0 l -5 5 a 15 12.5 0 0 0 -10 0 l -5 -5" fill="lawngreen" />
    <circle cx="50" cy="69.25" r="3" fill="lawngreen" />
</svg>